<?xml version="1.0" encoding="utf-8"?>
<!-- Generator: Adobe Illustrator 17.1.0, SVG Export Plug-In . SVG Version: 6.00 Build 0)  -->
<!DOCTYPE svg PUBLIC "-//W3C//DTD SVG 1.1//EN" "http://www.w3.org/Graphics/SVG/1.1/DTD/svg11.dtd">
<svg version="1.1" id="Layer_1" xmlns="http://www.w3.org/2000/svg" xmlns:xlink="http://www.w3.org/1999/xlink" x="0px" y="0px"
	 width="480px" height="620px" viewBox="0 0 480 620" enable-background="new 0 0 480 620" xml:space="preserve">
<g>
	<path fill="#999999" d="M37.6,572.9c0-1,0.1-1.8,0.4-2.6s0.6-1.5,1-2s1-1,1.6-1.3s1.3-0.5,2.1-0.5c0.8,0,1.4,0.1,2,0.4
		s1.1,0.6,1.5,1.1v-6.6h2.2v18h-2l-0.1-1.4c-0.4,0.5-0.9,0.9-1.5,1.2s-1.3,0.4-2.1,0.4c-0.7,0-1.4-0.2-2-0.5s-1.1-0.8-1.6-1.3
		s-0.8-1.3-1-2s-0.4-1.6-0.4-2.6V572.9z M39.8,573.1c0,0.6,0.1,1.2,0.2,1.8s0.3,1,0.6,1.5s0.6,0.7,1,1s0.9,0.4,1.5,0.4
		c0.4,0,0.7,0,1-0.1s0.6-0.2,0.8-0.4s0.5-0.4,0.7-0.6s0.4-0.5,0.5-0.8V570c-0.1-0.3-0.3-0.5-0.5-0.7s-0.4-0.4-0.7-0.6
		s-0.5-0.3-0.8-0.4s-0.6-0.1-1-0.1c-0.6,0-1.1,0.1-1.5,0.4s-0.8,0.6-1,1s-0.5,0.9-0.6,1.5s-0.2,1.2-0.2,1.8V573.1z"/>
	<path fill="#999999" d="M59.3,579.5c-0.9,0-1.7-0.2-2.4-0.5s-1.3-0.7-1.8-1.3s-0.9-1.2-1.2-1.9s-0.4-1.6-0.4-2.5v-0.5
		c0-1,0.2-2,0.5-2.8s0.7-1.5,1.2-2.1s1.1-1,1.8-1.3s1.4-0.4,2.1-0.4c0.9,0,1.7,0.2,2.3,0.5s1.2,0.8,1.6,1.3s0.7,1.2,0.9,2
		c0.2,0.8,0.3,1.6,0.3,2.5v1h-8.6c0,0.6,0.1,1.1,0.3,1.6s0.4,0.9,0.8,1.3s0.7,0.7,1.2,0.9s1,0.3,1.6,0.3c0.8,0,1.4-0.2,1.9-0.5
		s1-0.7,1.4-1.2l1.3,1c-0.2,0.3-0.4,0.6-0.7,0.9s-0.6,0.6-1,0.8s-0.8,0.4-1.3,0.6S60,579.5,59.3,579.5z M59.1,568.2
		c-0.4,0-0.8,0.1-1.2,0.2s-0.7,0.4-1,0.7s-0.5,0.7-0.7,1.1s-0.3,1-0.4,1.6h6.4v-0.2c0-0.4-0.1-0.8-0.2-1.3s-0.3-0.8-0.5-1.1
		s-0.5-0.6-0.9-0.8S59.6,568.2,59.1,568.2z"/>
	<path fill="#999999" d="M76.6,575.9c0-0.2,0-0.5-0.1-0.7s-0.2-0.4-0.4-0.6c-0.2-0.2-0.5-0.4-0.9-0.5c-0.4-0.2-0.9-0.3-1.5-0.4
		c-0.7-0.1-1.3-0.3-1.9-0.5s-1-0.4-1.4-0.7c-0.4-0.3-0.7-0.6-0.9-1s-0.3-0.8-0.3-1.4c0-0.5,0.1-1,0.3-1.4s0.5-0.8,0.9-1.2
		c0.4-0.3,0.9-0.6,1.5-0.8c0.6-0.2,1.2-0.3,1.9-0.3c0.8,0,1.4,0.1,2,0.3s1.1,0.5,1.5,0.8c0.4,0.4,0.7,0.8,1,1.3
		c0.2,0.5,0.3,1,0.3,1.5h-2.2c0-0.3-0.1-0.5-0.2-0.8s-0.3-0.5-0.5-0.7c-0.2-0.2-0.5-0.4-0.8-0.5s-0.7-0.2-1.1-0.2
		c-0.5,0-0.8,0.1-1.2,0.2s-0.6,0.2-0.8,0.4c-0.2,0.2-0.4,0.4-0.4,0.6s-0.1,0.5-0.1,0.7s0,0.4,0.1,0.6c0.1,0.2,0.2,0.4,0.4,0.5
		c0.2,0.2,0.5,0.3,0.9,0.4c0.4,0.1,0.9,0.3,1.5,0.4c0.8,0.2,1.4,0.4,2,0.6c0.6,0.2,1,0.5,1.4,0.8s0.7,0.6,0.8,1
		c0.2,0.4,0.3,0.8,0.3,1.4c0,0.6-0.1,1.1-0.3,1.5c-0.2,0.5-0.6,0.9-1,1.2c-0.4,0.3-0.9,0.6-1.5,0.8c-0.6,0.2-1.3,0.3-2,0.3
		c-0.8,0-1.6-0.1-2.2-0.4s-1.2-0.5-1.6-0.9c-0.4-0.4-0.8-0.8-1-1.3c-0.2-0.5-0.3-1-0.3-1.5h2.2c0,0.4,0.1,0.8,0.3,1.1
		c0.2,0.3,0.4,0.5,0.7,0.7c0.3,0.2,0.6,0.3,0.9,0.4c0.3,0.1,0.7,0.1,1,0.1c0.4,0,0.8,0,1.2-0.1c0.3-0.1,0.6-0.2,0.8-0.4
		c0.2-0.2,0.4-0.4,0.5-0.6S76.6,576.2,76.6,575.9z"/>
	<path fill="#999999" d="M84,563.3c0-0.4,0.1-0.6,0.3-0.9c0.2-0.2,0.5-0.4,1-0.4s0.7,0.1,1,0.4c0.2,0.2,0.3,0.5,0.3,0.9
		s-0.1,0.6-0.3,0.9c-0.2,0.2-0.5,0.4-1,0.4s-0.7-0.1-1-0.4C84.1,563.9,84,563.6,84,563.3z M86.3,579.3h-2.2v-12.7h2.2V579.3z"/>
	<path fill="#999999" d="M91.7,572.9c0-1,0.1-1.8,0.3-2.6s0.6-1.5,1-2s1-1,1.6-1.3s1.3-0.5,2.1-0.5c0.8,0,1.5,0.1,2.1,0.4
		s1.1,0.7,1.5,1.2l0.1-1.4h2V579c0,0.8-0.1,1.6-0.4,2.2s-0.6,1.2-1.1,1.7s-1,0.8-1.7,1s-1.4,0.4-2.2,0.4c-0.3,0-0.7,0-1.1-0.1
		s-0.9-0.2-1.3-0.4s-0.8-0.4-1.2-0.7s-0.7-0.6-1-1l1.1-1.3c0.3,0.3,0.5,0.6,0.8,0.8s0.6,0.4,0.8,0.5s0.6,0.2,0.9,0.3
		s0.6,0.1,0.9,0.1c0.5,0,1-0.1,1.4-0.2s0.8-0.4,1.1-0.7s0.5-0.6,0.7-1.1s0.2-0.9,0.2-1.5V578c-0.4,0.5-0.9,0.9-1.5,1.1
		s-1.3,0.4-2,0.4c-0.8,0-1.4-0.2-2.1-0.5s-1.1-0.8-1.6-1.3s-0.8-1.3-1-2s-0.4-1.6-0.4-2.6V572.9z M93.9,573.1c0,0.6,0.1,1.2,0.2,1.8
		s0.3,1,0.6,1.5s0.6,0.7,1,1s0.9,0.4,1.5,0.4c0.4,0,0.7,0,1-0.1s0.6-0.2,0.8-0.4s0.5-0.4,0.7-0.6s0.4-0.5,0.5-0.8V570
		c-0.1-0.3-0.3-0.5-0.5-0.7s-0.4-0.4-0.7-0.6s-0.5-0.3-0.8-0.4s-0.6-0.1-1-0.1c-0.6,0-1.1,0.1-1.5,0.4s-0.8,0.6-1,1
		s-0.5,0.9-0.6,1.5s-0.2,1.2-0.2,1.8V573.1z"/>
	<path fill="#999999" d="M110.1,566.6l0.1,1.6c0.5-0.6,1-1,1.6-1.3s1.4-0.5,2.2-0.5c0.6,0,1.2,0.1,1.7,0.3s0.9,0.4,1.3,0.8
		s0.6,0.8,0.8,1.4s0.3,1.3,0.3,2.1v8.3h-2.2V571c0-0.5-0.1-0.9-0.2-1.3s-0.3-0.6-0.5-0.8s-0.5-0.4-0.8-0.5s-0.7-0.2-1.1-0.2
		c-0.7,0-1.3,0.2-1.9,0.6s-0.9,0.9-1.2,1.5v9h-2.2v-12.7H110.1z"/>
	<path fill="#999999" d="M189.8,579.3c-0.1-0.2-0.1-0.4-0.2-0.6s-0.1-0.5-0.1-0.7c-0.2,0.2-0.4,0.4-0.7,0.6
		c-0.3,0.2-0.5,0.4-0.8,0.5c-0.3,0.1-0.6,0.3-1,0.3s-0.7,0.1-1.1,0.1c-0.6,0-1.2-0.1-1.8-0.3s-1-0.5-1.3-0.8
		c-0.4-0.3-0.7-0.7-0.9-1.2c-0.2-0.5-0.3-0.9-0.3-1.5c0-0.7,0.1-1.3,0.4-1.8c0.3-0.5,0.6-1,1.1-1.3c0.5-0.4,1.1-0.6,1.8-0.8
		s1.5-0.3,2.4-0.3h2.2v-1c0-0.8-0.2-1.4-0.7-1.8c-0.5-0.4-1.1-0.7-2-0.7c-0.4,0-0.8,0.1-1.1,0.2c-0.3,0.1-0.6,0.3-0.9,0.4
		c-0.2,0.2-0.4,0.4-0.6,0.6c-0.1,0.2-0.2,0.5-0.2,0.8h-2.2c0-0.5,0.1-0.9,0.4-1.3c0.2-0.4,0.6-0.8,1-1.2c0.4-0.4,1-0.6,1.6-0.9
		s1.3-0.3,2.1-0.3c0.7,0,1.3,0.1,1.9,0.3c0.6,0.2,1.1,0.4,1.5,0.8c0.4,0.4,0.7,0.8,1,1.3s0.4,1.2,0.4,1.9v5.9c0,0.4,0,0.9,0.1,1.4
		c0.1,0.5,0.2,0.9,0.3,1.2v0.2H189.8z M186.2,577.6c0.4,0,0.8-0.1,1.1-0.2c0.3-0.1,0.7-0.3,0.9-0.4s0.5-0.4,0.7-0.6
		c0.2-0.2,0.4-0.5,0.5-0.7v-2.6h-1.8c-1.2,0-2.2,0.2-2.9,0.6c-0.7,0.4-1,1-1,1.8c0,0.3,0.1,0.6,0.2,0.9c0.1,0.3,0.3,0.5,0.5,0.7
		c0.2,0.2,0.5,0.3,0.8,0.5C185.5,577.6,185.8,577.6,186.2,577.6z"/>
	<path fill="#999999" d="M199.5,566.6l0.1,1.6c0.5-0.6,1-1,1.6-1.3s1.4-0.5,2.2-0.5c0.6,0,1.2,0.1,1.7,0.3s0.9,0.4,1.3,0.8
		s0.6,0.8,0.8,1.4s0.3,1.3,0.3,2.1v8.3h-2.2V571c0-0.5-0.1-0.9-0.2-1.3s-0.3-0.6-0.5-0.8s-0.5-0.4-0.8-0.5s-0.7-0.2-1.1-0.2
		c-0.7,0-1.3,0.2-1.9,0.6s-0.9,0.9-1.2,1.5v9h-2.2v-12.7H199.5z"/>
	<path fill="#999999" d="M213.1,563.3c0-0.4,0.1-0.6,0.3-0.9s0.5-0.4,1-0.4s0.7,0.1,1,0.4s0.3,0.5,0.3,0.9s-0.1,0.6-0.3,0.9
		s-0.5,0.4-1,0.4s-0.7-0.1-1-0.4S213.1,563.6,213.1,563.3z M215.4,579.3h-2.2v-12.7h2.2V579.3z"/>
	<path fill="#999999" d="M223.4,566.6l0.1,1.4c0.4-0.5,1-0.9,1.6-1.2s1.3-0.4,2.2-0.4c0.8,0,1.5,0.2,2.2,0.5s1.1,0.8,1.4,1.6
		c0.4-0.6,1-1.1,1.6-1.5s1.5-0.6,2.4-0.6c0.7,0,1.3,0.1,1.8,0.3s1,0.5,1.3,0.8s0.6,0.9,0.8,1.4s0.3,1.3,0.3,2.1v8.3h-2.2V571
		c0-0.5-0.1-1-0.2-1.3s-0.3-0.6-0.5-0.8s-0.5-0.4-0.9-0.4s-0.7-0.1-1.1-0.1c-0.4,0-0.8,0.1-1.2,0.2s-0.6,0.3-0.9,0.6
		s-0.4,0.5-0.6,0.8s-0.2,0.7-0.3,1v8.4h-2.2V571c0-0.5-0.1-0.9-0.2-1.3s-0.3-0.6-0.5-0.8s-0.5-0.4-0.8-0.5s-0.7-0.2-1.1-0.2
		c-0.8,0-1.4,0.2-1.9,0.5s-0.8,0.8-1.1,1.3v9.3h-2.2v-12.7H223.4z"/>
	<path fill="#999999" d="M252.6,579.3c-0.1-0.2-0.1-0.4-0.2-0.6s-0.1-0.5-0.1-0.7c-0.2,0.2-0.4,0.4-0.7,0.6s-0.5,0.4-0.8,0.5
		s-0.6,0.3-1,0.3s-0.7,0.1-1.1,0.1c-0.6,0-1.2-0.1-1.8-0.3s-1-0.5-1.3-0.8s-0.7-0.7-0.9-1.2s-0.3-0.9-0.3-1.5c0-0.7,0.1-1.3,0.4-1.8
		s0.6-1,1.1-1.3s1.1-0.6,1.8-0.8s1.5-0.3,2.4-0.3h2.2v-1c0-0.8-0.2-1.4-0.7-1.8s-1.1-0.7-2-0.7c-0.4,0-0.8,0.1-1.1,0.2
		s-0.6,0.3-0.9,0.4s-0.4,0.4-0.6,0.6s-0.2,0.5-0.2,0.8h-2.2c0-0.5,0.1-0.9,0.4-1.3s0.6-0.8,1-1.2s1-0.6,1.6-0.9s1.3-0.3,2.1-0.3
		c0.7,0,1.3,0.1,1.9,0.3s1.1,0.4,1.5,0.8s0.7,0.8,1,1.3s0.4,1.2,0.4,1.9v5.9c0,0.4,0,0.9,0.1,1.4s0.2,0.9,0.3,1.2v0.2H252.6z
		 M249,577.6c0.4,0,0.8-0.1,1.1-0.2s0.7-0.3,0.9-0.4s0.5-0.4,0.7-0.6s0.4-0.5,0.5-0.7v-2.6h-1.8c-1.2,0-2.2,0.2-2.9,0.6s-1,1-1,1.8
		c0,0.3,0.1,0.6,0.2,0.9s0.3,0.5,0.5,0.7s0.5,0.3,0.8,0.5S248.6,577.6,249,577.6z"/>
	<path fill="#999999" d="M263.1,563.5v3.1h2.4v1.7h-2.4v7.9c0,0.3,0,0.6,0.1,0.8s0.2,0.4,0.3,0.5s0.3,0.2,0.4,0.2s0.3,0.1,0.5,0.1
		s0.4,0,0.6-0.1s0.4-0.1,0.5-0.1v1.8c-0.2,0-0.4,0.1-0.7,0.2s-0.6,0.1-1,0.1c-0.4,0-0.8-0.1-1.1-0.2s-0.7-0.3-0.9-0.6
		s-0.5-0.6-0.6-1s-0.2-1-0.2-1.6v-7.9h-2.3v-1.7h2.3v-3.1H263.1z"/>
	<path fill="#999999" d="M270.5,563.3c0-0.4,0.1-0.6,0.3-0.9s0.5-0.4,1-0.4s0.7,0.1,1,0.4s0.3,0.5,0.3,0.9s-0.1,0.6-0.3,0.9
		s-0.5,0.4-1,0.4s-0.7-0.1-1-0.4S270.5,563.6,270.5,563.3z M272.8,579.3h-2.2v-12.7h2.2V579.3z"/>
	<path fill="#999999" d="M278.1,572.8c0-0.9,0.1-1.8,0.4-2.6s0.7-1.5,1.1-2c0.5-0.6,1.1-1,1.8-1.4c0.7-0.3,1.5-0.5,2.4-0.5
		c0.9,0,1.7,0.2,2.4,0.5s1.3,0.8,1.8,1.4c0.5,0.6,0.9,1.3,1.1,2c0.3,0.8,0.4,1.6,0.4,2.6v0.3c0,0.9-0.1,1.8-0.4,2.6
		c-0.3,0.8-0.6,1.5-1.1,2c-0.5,0.6-1.1,1-1.8,1.3c-0.7,0.3-1.5,0.5-2.4,0.5s-1.7-0.2-2.4-0.5c-0.7-0.3-1.3-0.8-1.8-1.3
		c-0.5-0.6-0.9-1.3-1.2-2s-0.4-1.6-0.4-2.6V572.8z M280.3,573.1c0,0.6,0.1,1.2,0.2,1.8c0.1,0.6,0.4,1.1,0.7,1.5
		c0.3,0.4,0.7,0.8,1.1,1c0.4,0.3,1,0.4,1.6,0.4c0.6,0,1.1-0.1,1.6-0.4c0.5-0.3,0.8-0.6,1.1-1c0.3-0.4,0.5-0.9,0.7-1.5
		s0.2-1.2,0.2-1.8v-0.3c0-0.6-0.1-1.2-0.2-1.8s-0.4-1.1-0.7-1.5c-0.3-0.4-0.7-0.8-1.1-1c-0.5-0.3-1-0.4-1.6-0.4
		c-0.6,0-1.1,0.1-1.6,0.4s-0.8,0.6-1.1,1c-0.3,0.4-0.5,0.9-0.7,1.5c-0.1,0.6-0.2,1.2-0.2,1.8V573.1z"/>
	<path fill="#999999" d="M296.8,566.6l0.1,1.6c0.5-0.6,1-1,1.6-1.3s1.4-0.5,2.2-0.5c0.6,0,1.2,0.1,1.7,0.3s0.9,0.4,1.3,0.8
		s0.6,0.8,0.8,1.4s0.3,1.3,0.3,2.1v8.3h-2.2V571c0-0.5-0.1-0.9-0.2-1.3s-0.3-0.6-0.5-0.8s-0.5-0.4-0.8-0.5s-0.7-0.2-1.1-0.2
		c-0.7,0-1.3,0.2-1.9,0.6s-0.9,0.9-1.2,1.5v9h-2.2v-12.7H296.8z"/>
	<path fill="#999999" d="M370.7,566.6l0.1,1.4c0.4-0.5,1-0.9,1.6-1.2s1.3-0.4,2.2-0.4c0.8,0,1.5,0.2,2.2,0.5s1.1,0.8,1.4,1.6
		c0.4-0.6,1-1.1,1.6-1.5s1.5-0.6,2.4-0.6c0.7,0,1.3,0.1,1.8,0.3s1,0.5,1.3,0.8s0.6,0.9,0.8,1.4s0.3,1.3,0.3,2.1v8.3h-2.2V571
		c0-0.5-0.1-1-0.2-1.3s-0.3-0.6-0.5-0.8s-0.5-0.4-0.9-0.4s-0.7-0.1-1.1-0.1c-0.4,0-0.8,0.1-1.2,0.2s-0.6,0.3-0.9,0.6
		s-0.4,0.5-0.6,0.8s-0.2,0.7-0.3,1v8.4h-2.2V571c0-0.5-0.1-0.9-0.2-1.3s-0.3-0.6-0.5-0.8s-0.5-0.4-0.8-0.5s-0.7-0.2-1.1-0.2
		c-0.8,0-1.4,0.2-1.9,0.5s-0.8,0.8-1.1,1.3v9.3h-2.2v-12.7H370.7z"/>
	<path fill="#999999" d="M400,578c-0.4,0.5-0.9,0.8-1.5,1.1s-1.3,0.4-2.2,0.4c-0.6,0-1.2-0.1-1.7-0.3c-0.5-0.2-0.9-0.5-1.3-0.8
		c-0.4-0.4-0.7-0.9-0.8-1.5s-0.3-1.3-0.3-2.2v-8.2h2.2v8.2c0,0.6,0.1,1,0.2,1.4c0.1,0.4,0.3,0.7,0.5,0.9c0.2,0.2,0.5,0.4,0.8,0.4
		s0.6,0.1,0.9,0.1c0.9,0,1.6-0.2,2.1-0.5c0.5-0.3,0.9-0.8,1.2-1.3v-9.2h2.2v12.7H400L400,578z"/>
	<path fill="#999999" d="M415.1,575.9c0-0.2,0-0.5-0.1-0.7s-0.2-0.4-0.4-0.6s-0.5-0.4-0.9-0.5s-0.9-0.3-1.5-0.4
		c-0.7-0.1-1.3-0.3-1.9-0.5s-1-0.4-1.4-0.7s-0.7-0.6-0.9-1s-0.3-0.8-0.3-1.4c0-0.5,0.1-1,0.3-1.4s0.5-0.8,0.9-1.2s0.9-0.6,1.5-0.8
		s1.2-0.3,1.9-0.3c0.8,0,1.4,0.1,2,0.3s1.1,0.5,1.5,0.8s0.7,0.8,1,1.3s0.3,1,0.3,1.5H415c0-0.3-0.1-0.5-0.2-0.8s-0.3-0.5-0.5-0.7
		s-0.5-0.4-0.8-0.5s-0.7-0.2-1.1-0.2c-0.5,0-0.8,0.1-1.2,0.2s-0.6,0.2-0.8,0.4s-0.4,0.4-0.4,0.6s-0.1,0.5-0.1,0.7s0,0.4,0.1,0.6
		s0.2,0.4,0.4,0.5s0.5,0.3,0.9,0.4s0.9,0.3,1.5,0.4c0.8,0.2,1.4,0.4,2,0.6s1,0.5,1.4,0.8s0.7,0.6,0.8,1s0.3,0.8,0.3,1.4
		c0,0.6-0.1,1.1-0.3,1.5s-0.6,0.9-1,1.2s-0.9,0.6-1.5,0.8s-1.3,0.3-2,0.3c-0.8,0-1.6-0.1-2.2-0.4s-1.2-0.5-1.6-0.9s-0.8-0.8-1-1.3
		s-0.3-1-0.3-1.5h2.2c0,0.4,0.1,0.8,0.3,1.1s0.4,0.5,0.7,0.7s0.6,0.3,0.9,0.4s0.7,0.1,1,0.1c0.4,0,0.8,0,1.2-0.1s0.6-0.2,0.8-0.4
		s0.4-0.4,0.5-0.6S415.1,576.2,415.1,575.9z"/>
	<path fill="#999999" d="M422.6,563.3c0-0.4,0.1-0.6,0.3-0.9s0.5-0.4,1-0.4s0.7,0.1,1,0.4s0.3,0.5,0.3,0.9s-0.1,0.6-0.3,0.9
		s-0.5,0.4-1,0.4s-0.7-0.1-1-0.4S422.6,563.6,422.6,563.3z M424.9,579.3h-2.2v-12.7h2.2V579.3z"/>
	<path fill="#999999" d="M435.8,577.8c0.4,0,0.8-0.1,1.1-0.2s0.7-0.3,0.9-0.5s0.5-0.5,0.7-0.8s0.3-0.6,0.3-1h2.1
		c0,0.6-0.2,1.1-0.5,1.6s-0.6,1-1.1,1.3s-1,0.7-1.6,0.9s-1.2,0.3-1.9,0.3c-1,0-1.8-0.2-2.5-0.5s-1.3-0.8-1.8-1.4s-0.8-1.3-1-2
		s-0.3-1.6-0.3-2.4v-0.5c0-0.9,0.1-1.7,0.3-2.4s0.6-1.4,1-2s1.1-1,1.8-1.4s1.5-0.5,2.5-0.5c0.7,0,1.4,0.1,2,0.4s1.1,0.6,1.6,1
		s0.8,0.9,1,1.5s0.4,1.2,0.4,1.8h-2.1c0-0.4-0.1-0.8-0.3-1.1s-0.4-0.6-0.6-0.9s-0.6-0.5-0.9-0.6s-0.8-0.2-1.2-0.2
		c-0.7,0-1.2,0.1-1.7,0.4s-0.8,0.6-1.1,1s-0.5,0.9-0.6,1.5s-0.2,1.1-0.2,1.6v0.5c0,0.6,0.1,1.1,0.2,1.7s0.3,1,0.6,1.5s0.6,0.8,1.1,1
		S435.2,577.8,435.8,577.8z"/>
	<g>
		<path fill="#B33636" d="M148,572.3c0-1.8,1.2-3,2.9-3s2.8,1.2,2.8,3c0,1.7-1.1,3-2.9,3C149.1,575.3,148,574,148,572.3z"/>
	</g>
	<g>
		<path fill="#B33636" d="M335,572.3c0-1.8,1.2-3,2.9-3s2.8,1.2,2.8,3c0,1.7-1.1,3-2.9,3C336.1,575.3,335,574,335,572.3z"/>
	</g>
</g>
<g>
	<path fill="#808080" d="M52.4,48.5c0,1.4-0.2,2.6-0.5,3.7c-0.3,1.1-0.8,2.1-1.3,2.9c-0.6,0.8-1.3,1.4-2.1,1.9s-1.8,0.7-2.9,0.7
		c-1.3,0-2.4-0.2-3.3-0.7c-0.9-0.5-1.7-1.1-2.3-1.9v9.2h-2V39.3h1.8l0.1,2.5c0.6-0.9,1.4-1.6,2.3-2.1c0.9-0.5,2-0.8,3.3-0.8
		c1.1,0,2.1,0.2,2.9,0.6c0.9,0.4,1.6,1,2.2,1.8c0.6,0.8,1,1.8,1.3,2.9c0.3,1.1,0.5,2.4,0.5,3.8V48.5z M50.4,48.1c0-1-0.1-2-0.3-2.9
		c-0.2-0.9-0.5-1.7-1-2.4c-0.4-0.7-1-1.2-1.7-1.6c-0.7-0.4-1.5-0.6-2.4-0.6c-0.7,0-1.4,0.1-1.9,0.3c-0.6,0.2-1,0.4-1.5,0.8
		s-0.8,0.7-1.1,1.1c-0.3,0.4-0.5,0.8-0.7,1.3v8.6c0.2,0.5,0.5,0.9,0.8,1.3c0.3,0.4,0.7,0.7,1.1,1c0.4,0.3,0.9,0.5,1.5,0.7
		c0.5,0.2,1.2,0.2,1.8,0.2c0.9,0,1.7-0.2,2.4-0.6s1.2-0.9,1.7-1.6c0.4-0.7,0.8-1.5,1-2.4c0.2-0.9,0.3-1.9,0.3-2.9V48.1z"/>
	<path fill="#808080" d="M70.9,34.1c0-0.4,0.1-0.7,0.4-1c0.2-0.3,0.6-0.4,1-0.4c0.4,0,0.8,0.1,1,0.4c0.2,0.3,0.4,0.6,0.4,1
		c0,0.4-0.1,0.7-0.4,0.9c-0.2,0.3-0.6,0.4-1,0.4c-0.4,0-0.8-0.1-1-0.4C71.1,34.8,70.9,34.5,70.9,34.1z M73.3,57.3h-2v-18h2V57.3z"/>
	<path fill="#808080" d="M103.7,52.7c0-0.4-0.1-0.7-0.2-1.1c-0.1-0.4-0.4-0.7-0.7-1c-0.3-0.3-0.8-0.6-1.5-0.9
		c-0.6-0.3-1.4-0.5-2.4-0.7c-1-0.2-1.9-0.5-2.7-0.7c-0.8-0.3-1.4-0.6-2-1c-0.5-0.4-0.9-0.9-1.2-1.4c-0.3-0.5-0.4-1.2-0.4-1.9
		c0-0.7,0.1-1.3,0.4-1.9c0.3-0.6,0.7-1.1,1.3-1.6c0.5-0.4,1.2-0.8,2-1.1C97.1,39.1,98,39,99,39c1,0,2,0.1,2.8,0.4
		c0.8,0.3,1.5,0.6,2.1,1.1c0.6,0.5,1,1,1.3,1.7c0.3,0.7,0.4,1.4,0.4,2.1h-2c0-0.5-0.1-0.9-0.3-1.4c-0.2-0.4-0.5-0.8-0.9-1.2
		c-0.4-0.3-0.9-0.6-1.5-0.8c-0.6-0.2-1.2-0.3-2-0.3c-0.8,0-1.4,0.1-2,0.3c-0.5,0.2-1,0.4-1.3,0.7s-0.6,0.6-0.8,1
		c-0.2,0.4-0.2,0.7-0.2,1.1c0,0.4,0.1,0.8,0.2,1.1c0.1,0.3,0.4,0.6,0.7,0.9s0.8,0.5,1.5,0.8c0.6,0.2,1.4,0.5,2.4,0.7
		c1.1,0.3,2,0.5,2.8,0.8c0.8,0.3,1.4,0.7,2,1.1c0.5,0.4,0.9,0.9,1.1,1.5s0.4,1.2,0.4,1.9c0,0.7-0.2,1.4-0.5,2
		c-0.3,0.6-0.8,1.1-1.3,1.6c-0.6,0.4-1.3,0.8-2.1,1c-0.8,0.2-1.7,0.4-2.7,0.4c-1.1,0-2.1-0.1-3-0.4c-0.9-0.3-1.6-0.7-2.2-1.2
		s-1-1.1-1.4-1.7c-0.3-0.6-0.5-1.3-0.5-2h2c0,0.7,0.2,1.3,0.5,1.8c0.3,0.5,0.7,0.8,1.2,1.1c0.5,0.3,1,0.5,1.6,0.6
		c0.6,0.1,1.2,0.2,1.7,0.2c0.8,0,1.4-0.1,2-0.3c0.6-0.2,1.1-0.4,1.5-0.7c0.4-0.3,0.7-0.6,0.9-1C103.6,53.6,103.7,53.2,103.7,52.7z"
		/>
	<path fill="#808080" d="M127.5,34.7v4.6h3.7V41h-3.7v12c0,0.6,0.1,1.1,0.2,1.5c0.1,0.4,0.3,0.7,0.5,0.9s0.5,0.4,0.7,0.4
		c0.3,0.1,0.6,0.1,0.9,0.1c0.3,0,0.6,0,0.9-0.1c0.3,0,0.5-0.1,0.7-0.1l0.1,1.6c-0.2,0.1-0.6,0.2-1,0.2c-0.4,0-0.8,0.1-1.2,0.1
		c-0.6,0-1.1-0.1-1.6-0.2c-0.5-0.1-0.9-0.4-1.2-0.8c-0.3-0.4-0.6-0.8-0.8-1.5c-0.2-0.6-0.3-1.4-0.3-2.2V41h-3.3v-1.6h3.3v-4.6H127.5
		z"/>
	<path fill="#808080" d="M148.2,48.1c0-1.3,0.2-2.5,0.6-3.6c0.4-1.1,0.9-2.1,1.6-2.9c0.7-0.8,1.5-1.4,2.5-1.9c1-0.5,2.1-0.7,3.3-0.7
		c1.2,0,2.3,0.2,3.3,0.7c1,0.5,1.8,1.1,2.5,1.9c0.7,0.8,1.2,1.8,1.6,2.9c0.4,1.1,0.6,2.3,0.6,3.6v0.5c0,1.3-0.2,2.5-0.6,3.6
		c-0.4,1.1-0.9,2.1-1.6,2.9c-0.7,0.8-1.5,1.4-2.5,1.9c-1,0.4-2.1,0.7-3.3,0.7c-1.2,0-2.3-0.2-3.3-0.7c-1-0.4-1.8-1.1-2.5-1.9
		c-0.7-0.8-1.2-1.8-1.6-2.9c-0.4-1.1-0.6-2.3-0.6-3.6V48.1z M150.2,48.6c0,1,0.1,1.9,0.4,2.8c0.3,0.9,0.7,1.7,1.2,2.3
		c0.5,0.7,1.1,1.2,1.9,1.6c0.8,0.4,1.6,0.6,2.6,0.6c1,0,1.8-0.2,2.6-0.6s1.4-0.9,1.9-1.6c0.5-0.7,0.9-1.4,1.2-2.3
		c0.3-0.9,0.4-1.8,0.4-2.8v-0.5c0-1-0.1-1.9-0.4-2.8c-0.3-0.9-0.7-1.7-1.2-2.3c-0.5-0.7-1.1-1.2-1.9-1.6c-0.8-0.4-1.6-0.6-2.6-0.6
		c-1,0-1.8,0.2-2.6,0.6c-0.7,0.4-1.4,0.9-1.9,1.6c-0.5,0.7-0.9,1.5-1.2,2.3c-0.3,0.9-0.4,1.8-0.4,2.8V48.6z"/>
	<path fill="#808080" d="M184.9,57.3h-2V31.8h2V57.3z"/>
	<path fill="#808080" d="M208.8,48.2l-2.3,2.2v6.9h-2V31.8h2v16.3l1.9-2l6.9-6.8h2.5l-7.6,7.6l8.3,10.4h-2.4L208.8,48.2z"/>
	<path fill="#808080" d="M234.4,48.1c0-1.3,0.2-2.5,0.6-3.6c0.4-1.1,0.9-2.1,1.6-2.9c0.7-0.8,1.5-1.4,2.5-1.9c1-0.5,2.1-0.7,3.3-0.7
		c1.2,0,2.3,0.2,3.3,0.7c1,0.5,1.8,1.1,2.5,1.9c0.7,0.8,1.2,1.8,1.6,2.9c0.4,1.1,0.6,2.3,0.6,3.6v0.5c0,1.3-0.2,2.5-0.6,3.6
		c-0.4,1.1-0.9,2.1-1.6,2.9c-0.7,0.8-1.5,1.4-2.5,1.9c-1,0.4-2.1,0.7-3.3,0.7c-1.2,0-2.3-0.2-3.3-0.7c-1-0.4-1.8-1.1-2.5-1.9
		c-0.7-0.8-1.2-1.8-1.6-2.9c-0.4-1.1-0.6-2.3-0.6-3.6V48.1z M236.4,48.6c0,1,0.1,1.9,0.4,2.8c0.3,0.9,0.7,1.7,1.2,2.3
		c0.5,0.7,1.1,1.2,1.9,1.6c0.8,0.4,1.6,0.6,2.6,0.6c1,0,1.8-0.2,2.6-0.6s1.4-0.9,1.9-1.6c0.5-0.7,0.9-1.4,1.2-2.3
		c0.3-0.9,0.4-1.8,0.4-2.8v-0.5c0-1-0.1-1.9-0.4-2.8c-0.3-0.9-0.7-1.7-1.2-2.3c-0.5-0.7-1.1-1.2-1.9-1.6c-0.8-0.4-1.6-0.6-2.6-0.6
		c-1,0-1.8,0.2-2.6,0.6c-0.7,0.4-1.4,0.9-1.9,1.6c-0.5,0.7-0.9,1.5-1.2,2.3c-0.3,0.9-0.4,1.8-0.4,2.8V48.6z"/>
	<path fill="#808080" d="M277.1,41c-0.4-0.1-0.9-0.1-1.3-0.1c-0.7,0-1.3,0.1-1.8,0.3c-0.5,0.2-1,0.5-1.4,0.8c-0.4,0.4-0.8,0.8-1,1.3
		c-0.3,0.5-0.5,1-0.7,1.6v12.3h-2v-18h1.9l0,2.9c0.5-1,1.1-1.8,2-2.3c0.8-0.6,1.9-0.9,3.1-0.9c0.2,0,0.5,0,0.7,0.1
		c0.3,0,0.4,0.1,0.6,0.1L277.1,41z"/>
	<path fill="#808080" d="M305.3,52.7c0-0.4-0.1-0.7-0.2-1.1c-0.1-0.4-0.4-0.7-0.7-1c-0.3-0.3-0.8-0.6-1.5-0.9
		c-0.6-0.3-1.4-0.5-2.4-0.7c-1-0.2-1.9-0.5-2.7-0.7c-0.8-0.3-1.4-0.6-2-1c-0.5-0.4-0.9-0.9-1.2-1.4c-0.3-0.5-0.4-1.2-0.4-1.9
		c0-0.7,0.1-1.3,0.4-1.9c0.3-0.6,0.7-1.1,1.3-1.6c0.5-0.4,1.2-0.8,2-1.1c0.8-0.3,1.7-0.4,2.6-0.4c1,0,2,0.1,2.8,0.4
		c0.8,0.3,1.5,0.6,2.1,1.1c0.6,0.5,1,1,1.3,1.7c0.3,0.7,0.4,1.4,0.4,2.1h-2c0-0.5-0.1-0.9-0.3-1.4c-0.2-0.4-0.5-0.8-0.9-1.2
		c-0.4-0.3-0.9-0.6-1.5-0.8c-0.6-0.2-1.2-0.3-2-0.3c-0.8,0-1.4,0.1-2,0.3c-0.5,0.2-1,0.4-1.3,0.7s-0.6,0.6-0.8,1
		c-0.2,0.4-0.2,0.7-0.2,1.1c0,0.4,0.1,0.8,0.2,1.1c0.1,0.3,0.4,0.6,0.7,0.9s0.8,0.5,1.5,0.8c0.6,0.2,1.4,0.5,2.4,0.7
		c1.1,0.3,2,0.5,2.8,0.8c0.8,0.3,1.4,0.7,2,1.1c0.5,0.4,0.9,0.9,1.1,1.5s0.4,1.2,0.4,1.9c0,0.7-0.2,1.4-0.5,2s-0.8,1.1-1.3,1.6
		c-0.6,0.4-1.3,0.8-2.1,1s-1.7,0.4-2.7,0.4c-1.1,0-2.1-0.1-3-0.4s-1.6-0.7-2.2-1.2s-1-1.1-1.4-1.7c-0.3-0.6-0.5-1.3-0.5-2h2
		c0,0.7,0.2,1.3,0.5,1.8c0.3,0.5,0.7,0.8,1.2,1.1s1,0.5,1.6,0.6c0.6,0.1,1.2,0.2,1.7,0.2c0.8,0,1.4-0.1,2-0.3
		c0.6-0.2,1.1-0.4,1.5-0.7c0.4-0.3,0.7-0.6,0.9-1C305.2,53.6,305.3,53.2,305.3,52.7z"/>
	<path fill="#B33636" d="M325.5,48.4c0-0.4,0.1-0.8,0.2-1.2c0.1-0.4,0.3-0.7,0.6-1c0.3-0.3,0.6-0.5,0.9-0.6c0.4-0.2,0.8-0.2,1.2-0.2
		s0.9,0.1,1.2,0.2c0.4,0.2,0.7,0.4,1,0.6c0.3,0.3,0.5,0.6,0.6,1c0.1,0.4,0.2,0.8,0.2,1.2c0,0.4-0.1,0.8-0.2,1.2
		c-0.1,0.4-0.3,0.7-0.6,0.9c-0.3,0.3-0.6,0.5-1,0.6c-0.4,0.1-0.8,0.2-1.2,0.2s-0.9-0.1-1.2-0.2c-0.4-0.1-0.7-0.4-0.9-0.6
		c-0.3-0.3-0.5-0.6-0.6-0.9C325.6,49.2,325.5,48.8,325.5,48.4z"/>
	<path fill="#808080" d="M356.8,56c0.6,0,1.2-0.1,1.8-0.3s1.1-0.5,1.6-0.8c0.5-0.4,0.8-0.8,1.1-1.3c0.3-0.5,0.5-1.1,0.5-1.8h1.9
		c0,0.9-0.3,1.6-0.6,2.4c-0.4,0.7-0.9,1.3-1.5,1.9c-0.6,0.5-1.3,0.9-2.2,1.2c-0.8,0.3-1.7,0.4-2.6,0.4c-1.3,0-2.4-0.2-3.3-0.7
		c-1-0.5-1.8-1.1-2.4-1.9c-0.6-0.8-1.1-1.8-1.5-2.8c-0.3-1.1-0.5-2.3-0.5-3.5V48c0-1.3,0.2-2.4,0.5-3.5c0.3-1.1,0.8-2,1.5-2.8
		c0.6-0.8,1.4-1.4,2.4-1.9s2.1-0.7,3.3-0.7c1,0,1.9,0.1,2.7,0.4s1.5,0.7,2.2,1.3c0.6,0.6,1.1,1.2,1.5,2c0.4,0.8,0.6,1.7,0.6,2.6
		h-1.9c0-0.7-0.2-1.4-0.5-2c-0.3-0.6-0.6-1.1-1.1-1.5c-0.4-0.4-1-0.7-1.6-0.9s-1.2-0.3-1.9-0.3c-1,0-1.9,0.2-2.6,0.6
		s-1.3,0.9-1.8,1.6c-0.5,0.7-0.8,1.5-1,2.3c-0.2,0.9-0.3,1.8-0.3,2.7v0.7c0,1,0.1,1.9,0.3,2.8s0.5,1.7,1,2.3c0.4,0.7,1,1.2,1.8,1.6
		S355.8,56,356.8,56z"/>
	<path fill="#808080" d="M380.9,48.1c0-1.3,0.2-2.5,0.6-3.6c0.4-1.1,0.9-2.1,1.6-2.9c0.7-0.8,1.5-1.4,2.5-1.9c1-0.5,2.1-0.7,3.3-0.7
		c1.2,0,2.3,0.2,3.3,0.7c1,0.5,1.8,1.1,2.5,1.9c0.7,0.8,1.2,1.8,1.6,2.9c0.4,1.1,0.6,2.3,0.6,3.6v0.5c0,1.3-0.2,2.5-0.6,3.6
		c-0.4,1.1-0.9,2.1-1.6,2.9c-0.7,0.8-1.5,1.4-2.5,1.9c-1,0.4-2.1,0.7-3.3,0.7c-1.2,0-2.3-0.2-3.3-0.7c-1-0.4-1.8-1.1-2.5-1.9
		c-0.7-0.8-1.2-1.8-1.6-2.9c-0.4-1.1-0.6-2.3-0.6-3.6V48.1z M382.9,48.6c0,1,0.1,1.9,0.4,2.8c0.3,0.9,0.7,1.7,1.2,2.3
		c0.5,0.7,1.1,1.2,1.9,1.6c0.8,0.4,1.6,0.6,2.6,0.6c1,0,1.8-0.2,2.6-0.6s1.4-0.9,1.9-1.6c0.5-0.7,0.9-1.4,1.2-2.3
		c0.3-0.9,0.4-1.8,0.4-2.8v-0.5c0-1-0.1-1.9-0.4-2.8c-0.3-0.9-0.7-1.7-1.2-2.3c-0.5-0.7-1.1-1.2-1.9-1.6c-0.8-0.4-1.6-0.6-2.6-0.6
		c-1,0-1.8,0.2-2.6,0.6c-0.7,0.4-1.4,0.9-1.9,1.6c-0.5,0.7-0.9,1.5-1.2,2.3c-0.3,0.9-0.4,1.8-0.4,2.8V48.6z"/>
	<path fill="#808080" d="M417.1,39.3l0.1,2.9c0.3-0.5,0.6-0.9,1-1.3c0.4-0.4,0.8-0.7,1.3-1s1-0.5,1.6-0.7c0.6-0.2,1.2-0.2,1.9-0.2
		c1.3,0,2.4,0.3,3.4,0.8c0.9,0.6,1.6,1.4,2,2.7c0.3-0.5,0.6-1,1-1.4c0.4-0.4,0.9-0.8,1.4-1.1c0.5-0.3,1.1-0.6,1.7-0.7
		c0.6-0.2,1.3-0.3,2-0.3c0.9,0,1.8,0.1,2.5,0.4s1.3,0.6,1.9,1.2c0.5,0.5,0.9,1.2,1.2,2.1s0.4,1.8,0.4,3v11.7h-2V45.6
		c0-1-0.1-1.7-0.3-2.4c-0.2-0.6-0.5-1.1-0.9-1.5c-0.4-0.4-0.8-0.6-1.4-0.8c-0.5-0.1-1.1-0.2-1.8-0.2c-0.8,0-1.6,0.2-2.2,0.5
		c-0.6,0.3-1.2,0.7-1.6,1.1c-0.4,0.4-0.8,0.9-1,1.5c-0.2,0.6-0.4,1.1-0.4,1.6v11.9h-2V45.4c0-0.9-0.1-1.6-0.3-2.2s-0.5-1.1-0.9-1.4
		s-0.8-0.6-1.4-0.8c-0.5-0.2-1.1-0.2-1.8-0.2c-0.8,0-1.4,0.1-2,0.4c-0.6,0.2-1.1,0.6-1.5,1c-0.4,0.4-0.8,0.9-1.1,1.4
		c-0.3,0.5-0.5,1-0.7,1.6v12.3h-2v-18H417.1z"/>
</g>
<g>
	<path fill="#B33636" d="M317.5,338.9L317.5,338.9c0,0,10.2-16.4,0-26.6c-10.2-10.2-18.7-8.3-10.4,0c8.3,8.3,0,16.1,0,16.1
		c0,0,0,0,0,0c-35.7-35.7-146.1-146.1-146.1-146.1l-17.6,17.6l26.6,26.6l-4.7,4.7c0,0,76.2,76.2,105.8,105.8
		c1.8,1.8,3.5,3.7,5.1,5.5c-4.7,6-6,18.6-6,18.6s13.1,13.8,23.8,21.7c1.2,22.9-12.5,38.7-12.5,38.7s11.8,11.8,21.8,21.8
		c10,10,20.9,0,20.9,0s30.6-67.2-6.2-103.9C317.9,339.3,317.7,339.1,317.5,338.9z"/>
	<path fill="#B33636" d="M314.3,231.2l-4.7-4.7l26.6-26.6l-17.6-17.6c0,0-34.9,34.9-71.7,71.7l22.3,22.3
		C293.3,252.1,314.3,231.2,314.3,231.2z"/>
	<path fill="#B33636" d="M232.7,312.8l-22.3-22.3c-15.4,15.4-29,29-38,38c0,0,0,0,0,0c0,0-8.3-7.8,0-16.1c8.3-8.3-0.2-10.2-10.4,0
		c-10.2,10.2,0,26.6,0,26.6l0,0c-0.2,0.2-0.4,0.4-0.5,0.5c-36.8,36.8-6.2,103.9-6.2,103.9s10.9,10,20.9,0c10-10,21.8-21.8,21.8-21.8
		s-13.7-15.8-12.5-38.7c10.7-7.9,23.8-21.7,23.8-21.7s-1.3-12.6-6-18.6c1.6-1.8,3.3-3.6,5.1-5.5
		C214.8,330.7,223.3,322.2,232.7,312.8z"/>
</g>
<g id="Ellipse_3_copy_3">
	<g>
		<path fill-rule="evenodd" clip-rule="evenodd" fill="#D9D9D9" d="M240.1,451.3c-5.5,0-10,4.5-10,10c0,5.5,4.5,10,10,10
			s10-4.5,10-10C250.1,455.8,245.6,451.3,240.1,451.3z M240.1,152.3c-5.5,0-10,4.5-10,10c0,5.5,4.5,10,10,10s10-4.5,10-10
			C250.1,156.8,245.6,152.3,240.1,152.3z M360.1,269.3c-5.5,0-10,4.5-10,10c0,5.5,4.5,10,10,10s10-4.5,10-10
			C370.1,273.8,365.6,269.3,360.1,269.3z M120.1,269.3c-5.5,0-10,4.5-10,10c0,5.5,4.5,10,10,10s10-4.5,10-10
			C130.1,273.8,125.6,269.3,120.1,269.3z"/>
	</g>
</g>
</svg>
